<svg width="14" height="14" viewBox="0 0 14 14" fill="none" xmlns="http://www.w3.org/2000/svg">
<path d="M10.1364 0H3.86339C1.73312 0 0 1.7332 0 3.86347V10.1364C0 12.2668 1.73312 13.9999 3.86339 13.9999H10.1364C12.2668 13.9999 13.9999 12.2667 13.9999 10.1364V3.86347C14 1.7332 12.2668 0 10.1364 0ZM12.7579 10.1364C12.7579 11.5819 11.5819 12.7578 10.1364 12.7578H3.86339C2.41803 12.7579 1.24214 11.5819 1.24214 10.1364V3.86347C1.24214 2.41812 2.41803 1.24214 3.86339 1.24214H10.1364C11.5818 1.24214 12.7578 2.41812 12.7578 3.86347V10.1364H12.7579Z" fill="#10784A"/>
<path d="M6.99994 3.39258C5.01078 3.39258 3.39252 5.01084 3.39252 7C3.39252 8.98908 5.01078 10.6073 6.99994 10.6073C8.98911 10.6073 10.6074 8.98908 10.6074 7C10.6074 5.01084 8.98911 3.39258 6.99994 3.39258ZM6.99994 9.36504C5.69578 9.36504 4.63466 8.30408 4.63466 6.99992C4.63466 5.69567 5.69569 4.63464 6.99994 4.63464C8.30419 4.63464 9.36523 5.69567 9.36523 6.99992C9.36523 8.30408 8.30411 9.36504 6.99994 9.36504Z" fill="#10784A"/>
<path d="M10.7587 2.3396C10.5194 2.3396 10.2843 2.43649 10.1153 2.60625C9.94541 2.77518 9.84778 3.01036 9.84778 3.2505C9.84778 3.4899 9.94549 3.725 10.1153 3.89476C10.2842 4.06369 10.5194 4.16141 10.7587 4.16141C10.9988 4.16141 11.2332 4.06369 11.4029 3.89476C11.5727 3.725 11.6696 3.48982 11.6696 3.2505C11.6696 3.01036 11.5727 2.77518 11.4029 2.60625C11.234 2.43649 10.9988 2.3396 10.7587 2.3396Z" fill="#10784A"/>
</svg>
