<svg width="14" height="14" viewBox="0 0 14 14" fill="none" xmlns="http://www.w3.org/2000/svg">
<g clip-path="url(#clip0)">
<path d="M11.9126 1.90071C10.5955 0.758579 8.85084 0.129639 7 0.129639C5.14916 0.129639 3.4045 0.758579 2.08736 1.90071C0.741357 3.0679 0 4.62833 0 6.29448C0 7.9265 0.727546 9.47562 2.01536 10.6247C1.41839 11.6597 0.416859 12.6304 0.405319 12.6415C0.187222 12.8513 0.125016 13.1757 0.249881 13.4512C0.366384 13.7081 0.621903 13.8706 0.900238 13.8706C0.920632 13.8706 0.941216 13.8697 0.961838 13.868C1.08175 13.8576 3.85397 13.6074 6.25955 12.4249C6.50618 12.4477 6.75443 12.4594 7.00004 12.4594C8.85088 12.4594 10.5955 11.8304 11.9127 10.6883C13.2586 9.52103 14 7.96063 14 6.29448C14 4.62833 13.2586 3.0679 11.9126 1.90071ZM3.42852 7.00012C2.83292 7.00012 2.34822 6.51549 2.34822 5.91981C2.34822 5.32417 2.83292 4.83954 3.42852 4.83954C4.02424 4.83954 4.50883 5.32417 4.50883 5.91981C4.50883 6.51549 4.02424 7.00012 3.42852 7.00012ZM7 7.00012C6.40436 7.00012 5.91969 6.51549 5.91969 5.91981C5.91969 5.32417 6.40436 4.83954 7 4.83954C7.59564 4.83954 8.08031 5.32417 8.08031 5.91981C8.08031 6.51549 7.59564 7.00012 7 7.00012ZM10.5715 7.00012C9.97576 7.00012 9.49117 6.51549 9.49117 5.91981C9.49117 5.32417 9.97576 4.83954 10.5715 4.83954C11.1671 4.83954 11.6518 5.32417 11.6518 5.91981C11.6518 6.51549 11.1671 7.00012 10.5715 7.00012Z" fill="#5CB589"/>
</g>
<defs>
<clipPath id="clip0">
<rect width="14" height="14" fill="white"/>
</clipPath>
</defs>
</svg>
