<svg width="15" height="15" viewBox="0 0 15 15" fill="none" xmlns="http://www.w3.org/2000/svg">
<path d="M7.5 0C3.36446 0 0 3.36446 0 7.5C0 11.6355 3.36446 15 7.5 15C11.6355 15 15 11.6355 15 7.5C15 3.36446 11.6355 0 7.5 0ZM7.5 13.4211C4.23513 13.4211 1.57895 10.7649 1.57895 7.5C1.57895 4.23513 4.23513 1.57895 7.5 1.57895C10.7649 1.57895 13.4211 4.23513 13.4211 7.5C13.4211 10.7649 10.7649 13.4211 7.5 13.4211Z" fill="#5CB589"/>
<path d="M11.526 7.26829H8.59722C8.4908 7.09488 8.34447 6.94855 8.17106 6.84213V3.3212C8.17106 2.95058 7.87062 2.65015 7.50001 2.65015C7.12939 2.65015 6.82895 2.95058 6.82895 3.3212V6.84213C6.46007 7.06859 6.21344 7.47569 6.21344 7.93934C6.21344 8.64877 6.79062 9.22591 7.50001 9.22591C7.96366 9.22591 8.37076 8.97928 8.59722 8.6104H11.526C11.8967 8.6104 12.1971 8.30996 12.1971 7.93934C12.1971 7.56873 11.8967 7.26829 11.526 7.26829Z" fill="#5CB589"/>
</svg>
