<svg width="7" height="13" viewBox="0 0 7 13" fill="none" xmlns="http://www.w3.org/2000/svg">
<path d="M1.77797 2.51767C1.77797 2.84528 1.77797 4.30751 1.77797 4.30751H0.466675V6.49613H1.77797V12.9999H4.47164V6.49631H6.27922C6.27922 6.49631 6.44851 5.44689 6.53056 4.29944C6.2953 4.29944 4.48182 4.29944 4.48182 4.29944C4.48182 4.29944 4.48182 3.02617 4.48182 2.80299C4.48182 2.57933 4.77552 2.27848 5.06579 2.27848C5.35553 2.27848 5.96703 2.27848 6.53341 2.27848C6.53341 1.98049 6.53341 0.950894 6.53341 7.81804e-09C5.77731 7.81804e-09 4.91712 7.81804e-09 4.53795 7.81804e-09C1.71138 -0.000151115 1.77797 2.19064 1.77797 2.51767Z" fill="#10784A"/>
</svg>
