<svg width="15" height="14" viewBox="0 0 15 14" fill="none" xmlns="http://www.w3.org/2000/svg">
<path d="M14.3519 13.0501L10.9747 9.67291C11.8118 8.65229 12.3164 7.34499 12.3164 5.92014C12.3164 2.65188 9.66451 0 6.39625 0C3.12512 0 0.476105 2.65188 0.476105 5.92014C0.476105 9.1884 3.12512 11.8403 6.39625 11.8403C7.82109 11.8403 9.12553 11.3386 10.1461 10.5014L13.5233 13.8758C13.7527 14.1051 14.1225 14.1051 14.3519 13.8758C14.5812 13.6493 14.5812 13.2766 14.3519 13.0501ZM6.39625 10.662C3.77877 10.662 1.65153 8.53475 1.65153 5.92014C1.65153 3.30553 3.77877 1.17543 6.39625 1.17543C9.01085 1.17543 11.141 3.30553 11.141 5.92014C11.141 8.53475 9.01085 10.662 6.39625 10.662Z" fill="white"/>
</svg>
