<svg width="13" height="13" viewBox="0 0 13 13" fill="none" xmlns="http://www.w3.org/2000/svg">
<g clip-path="url(#clip0)">
<path d="M11.457 1.56323H1.54299C0.692191 1.56323 0 2.22797 0 3.04502V9.95526C0 10.7723 0.692191 11.437 1.54299 11.437H11.457C12.3078 11.437 13 10.7723 13 9.95526V3.04502C13 2.22797 12.3078 1.56323 11.457 1.56323ZM11.457 10.1289H1.54299C1.41793 10.1289 1.30824 10.0478 1.30824 9.95526V3.95879L5.79211 7.7443C5.88403 7.82194 6.00093 7.86467 6.1213 7.86467L6.87857 7.8647C6.99887 7.8647 7.11583 7.82194 7.20779 7.7443L11.6919 3.95865V9.95533C11.6918 10.0478 11.5821 10.1289 11.457 10.1289ZM6.50002 6.56575L2.1389 2.87141H10.8611L6.50002 6.56575Z" fill="#67BE92"/>
</g>
<defs>
<clipPath id="clip0">
<rect width="13" height="13" fill="white"/>
</clipPath>
</defs>
</svg>
